 http://img705.imageshack.us/img705/8045/055yk.jpg

Country.......: USA
Genre.........: Horror, Thriller
Date release..: 12.09.2010 [World]
Director......: Brad Anderson
Writers.......: Anthony Jaswinski
Duration......: 90 min.
More..........: http://www.imdb.com/title/tt1452628
Trailer.......: http://www.imdb.com/video/imdb/vi3918829593
Trailer.......:

Pilot :
The population of Detroit has almost completely disappeared, but a few remain. As daylight disappears they realize that the Dark is coming for them. 

Cats :
Hayden Christensen   	 ...  	Luke
John Leguizamo 	... 	Paul
Thandie Newton 	... 	Rosemary
Jacob Latimore 	... 	James
Taylor Groothuis 	... 	Briana
Jordan Trovillion 	... 	Concession Girl
Arthur Cartwright 	... 	Security Guard
Neal Huff 	... 	Chicago Reporter
Hugh Maguire 	... 	Patient
Erin Nicole 	... 	Paige (as Erin Nicole Brolley)
Stephen Clark 	... 	Male TV Anchor
Carolyn Taylor 	... 	Female TV Anchor (as Caroline Clifford-Taylor)
Larry Fessenden 	... 	Bike Messenger
Nicholas Yu 	... 	Chinese Reporter (as Nick Yu) 

Data Technical :
!!! SAMPLE !!!
Audio.....: English
Subtitles.: Spanish .sub
Format                           : AVI
Format/Info                      : Audio Video Interleave
File size                        : 699 MiB
Duration                         : 1h 30mn
Overall bit rate                 : 1 083 Kbps
Writing application              : VirtualDubMod 1.5.10.2 (build 2540/release)
Writing library                  : VirtualDubMod build 2540/release
Video
ID                               : 0
Format                           : MPEG-4 Visual
Format profile                   : Advanced Simple@L5
Format settings, BVOP            : Yes
Format settings, QPel            : No
Format settings, GMC             : No warppoints
Format settings, Matrix          : Default (MPEG)
Codec ID                         : XVID
Codec ID/Hint                    : XviD
Duration                         : 1h 30mn
Bit rate                         : 943 Kbps
Width                            : 640 pixels
Height                           : 272 pixels
Display aspect ratio             : 2.35:1
Frame rate                       : 23.976 fps
Color space                      : YUV
Chroma subsampling               : 4:2:0
Bit depth                        : 8 bits
Scan type                        : Progressive
Bits/(Pixel*Frame)               : 0.226
Stream size                      : 609 MiB (87%)
Writing library                  : XviD 1.2.1 (UTC 2008-12-04)
Audio
ID                               : 1
Format                           : MPEG Audio
Codec ID                         : 55
Codec ID/Hint                    : MP3
Duration                         : 1h 30mn
Bit rate                         : 128 Kbps
Channel(s)                       : 2 channels
Sampling rate                    : 48.0 KHz
Stream size                      : 82.2 MiB (12%)
Alignment                        : Split accross interleaves
Interleave, duration             : 24 ms (0.58 video frame)
Interleave, preload duration     : 1526 ms

Screen : 
http://img717.imageshack.us/img717/2782/vanishingon7thstreet201.jpg 
http://img806.imageshack.us/img806/8321/vanishingon7thstreet201v.jpg 
http://img718.imageshack.us/img718/2782/vanishingon7thstreet201.jpg 
http://img38.imageshack.us/img38/2782/vanishingon7thstreet201.jpg 
http://img808.imageshack.us/img808/7666/vanishingon7thstreet201h.jpg